<mxfile host="app.diagrams.net" agent="Mozilla/5.0 (Windows NT 10.0; Win64; x64) AppleWebKit/537.36 (KHTML, like Gecko) Chrome/131.0.0.0 Safari/537.36" version="25.0.1">
  <diagram id="NlaS76H8VM4Psq2XXJsD" name="Page-1">
    <mxGraphModel dx="954" dy="558" grid="1" gridSize="10" guides="1" tooltips="1" connect="1" arrows="1" fold="1" page="1" pageScale="1" pageWidth="827" pageHeight="1169" math="0" shadow="0">
      <root>
        <mxCell id="0" />
        <mxCell id="1" parent="0" />
        <mxCell id="FUCYp8KWOsKiyva0ce31-1" value="" style="rounded=0;whiteSpace=wrap;html=1;" vertex="1" parent="1">
          <mxGeometry y="40" width="810" height="530" as="geometry" />
        </mxCell>
        <mxCell id="FUCYp8KWOsKiyva0ce31-2" value="&lt;font style=&quot;font-size: 14px;&quot;&gt;Logo&lt;/font&gt;" style="ellipse;whiteSpace=wrap;html=1;aspect=fixed;" vertex="1" parent="1">
          <mxGeometry x="50" y="100" width="100" height="100" as="geometry" />
        </mxCell>
        <mxCell id="FUCYp8KWOsKiyva0ce31-3" value="&lt;font style=&quot;font-size: 15px;&quot;&gt;Company name&lt;/font&gt;" style="text;html=1;align=center;verticalAlign=middle;whiteSpace=wrap;rounded=0;" vertex="1" parent="1">
          <mxGeometry x="160" y="135" width="110" height="30" as="geometry" />
        </mxCell>
        <mxCell id="FUCYp8KWOsKiyva0ce31-4" value="&lt;h1 style=&quot;margin-top: 0px;&quot;&gt;Reset your Password!&lt;/h1&gt;&lt;p&gt;Lorem ipsum dolor sit amet, consectetur adipisicing elit, sed do eiusmod tempor incididunt ut labore et dolore magna aliqua.&lt;/p&gt;" style="text;html=1;whiteSpace=wrap;overflow=hidden;rounded=0;" vertex="1" parent="1">
          <mxGeometry x="60" y="270" width="180" height="120" as="geometry" />
        </mxCell>
        <mxCell id="FUCYp8KWOsKiyva0ce31-5" value="" style="endArrow=none;dashed=1;html=1;rounded=0;entryX=0.5;entryY=0;entryDx=0;entryDy=0;exitX=0.5;exitY=1;exitDx=0;exitDy=0;" edge="1" parent="1">
          <mxGeometry width="50" height="50" relative="1" as="geometry">
            <mxPoint x="360" y="570" as="sourcePoint" />
            <mxPoint x="360" y="40" as="targetPoint" />
          </mxGeometry>
        </mxCell>
        <mxCell id="FUCYp8KWOsKiyva0ce31-7" value="&lt;font style=&quot;font-size: 14px;&quot;&gt;Enter Username/Email&lt;/font&gt;" style="rounded=1;whiteSpace=wrap;html=1;" vertex="1" parent="1">
          <mxGeometry x="455" y="185" width="255" height="50" as="geometry" />
        </mxCell>
        <mxCell id="FUCYp8KWOsKiyva0ce31-8" value="&lt;font style=&quot;font-size: 14px;&quot;&gt;Enter Username/Email&lt;/font&gt;" style="rounded=1;whiteSpace=wrap;html=1;" vertex="1" parent="1">
          <mxGeometry x="455" y="250" width="255" height="50" as="geometry" />
        </mxCell>
      </root>
    </mxGraphModel>
  </diagram>
</mxfile>
